<?xml version="1.0" encoding="utf-8"?><!-- Uploaded to: SVG Repo, www.svgrepo.com, Generator: SVG Repo Mixer Tools -->
<svg width="800px" height="800px" viewBox="0 0 24 24" fill="none" xmlns="http://www.w3.org/2000/svg">
<path fill-rule="evenodd" clip-rule="evenodd" d="M19.5 17.25L15.75 17.25L15.75 15L19.5 15L19.5 17.25ZM19.5 13.5L19.5 9.75L15.75 9.75L15.75 6L10.5 6L9 6L4.5 6L4.5 9.75L3 9.75L3 15L4.5 15L4.5 18.75L9 18.75L10.5 18.75L14.25 18.75L15.75 18.75L21 18.75L21 13.5L19.5 13.5ZM18 13.5L18 11.25L15.75 11.25L14.25 11.25L14.25 13.5L15.75 13.5L18 13.5ZM14.25 15L12.75 15L10.5 15L10.5 17.25L14.25 17.25L14.25 15ZM12.75 11.25L12.75 13.5L9 13.5L9 11.25L10.5 11.25L12.75 11.25ZM9 15L9 17.25L6 17.25L6 15L9 15ZM14.25 7.5L10.5 7.5L10.5 9.75L14.25 9.75L14.25 7.5ZM4.5 11.25L4.5 13.5L7.5 13.5L7.5 11.25L4.5 11.25ZM6 9.75L9 9.75L9 7.5L6 7.5L6 9.75Z" fill="#080341"/>
</svg>